<?xml version="1.0" encoding="utf-8"?>
<!-- Generator: Adobe Illustrator 22.1.0, SVG Export Plug-In . SVG Version: 6.00 Build 0)  -->
<svg version="1.1" id="Calque_1" xmlns="http://www.w3.org/2000/svg" xmlns:xlink="http://www.w3.org/1999/xlink" x="0px" y="0px"
	 viewBox="0 0 998 966" style="enable-background:new 0 0 998 966;" xml:space="preserve">
<style type="text/css">
	.st0{fill:#4B4B4B;}
</style>
<path class="st0" d="M499,582c-8.7,0-16.3-3.3-23-10L10,106C3.3,99.3,0,91.7,0,83s3.3-16.3,10-23l50-50C66.7,3.3,74.3,0,83,0
	s16.3,3.3,23,10l393,393L892,10c6.7-6.7,14.3-10,23-10s16.3,3.3,23,10l50,50c6.7,6.7,10,14.3,10,23s-3.3,16.3-10,23L522,572
	C515.3,578.7,507.7,582,499,582z M499,966c-8.7,0-16.3-3.3-23-10L10,490c-6.7-6.7-10-14.3-10-23s3.3-16.3,10-23l50-50
	c6.7-6.7,14.3-10,23-10s16.3,3.3,23,10l393,393l393-393c6.7-6.7,14.3-10,23-10s16.3,3.3,23,10l50,50c6.7,6.7,10,14.3,10,23
	s-3.3,16.3-10,23L522,956C515.3,962.7,507.7,966,499,966z"/>
</svg>
