<?xml version="1.0" encoding="utf-8"?>
<!-- Generator: Adobe Illustrator 22.1.0, SVG Export Plug-In . SVG Version: 6.00 Build 0)  -->
<svg version="1.1" id="Layer_1" xmlns="http://www.w3.org/2000/svg" xmlns:xlink="http://www.w3.org/1999/xlink" x="0px" y="0px"
	 viewBox="0 0 145.2 145.2" style="enable-background:new 0 0 145.2 145.2;" xml:space="preserve">
<style type="text/css">
	.st0{fill:#4C4B4B;}
	.st1{fill:none;stroke:#4C4B4B;stroke-width:8;stroke-miterlimit:10;}
	.st2{fill:none;stroke:#C7C6C6;stroke-width:10;stroke-miterlimit:10;}
	.st3{fill:#C7C6C6;}
	.st4{fill:#FFFFFF;}
	.st5{fill:#C81517;}
</style>
<g>
	<path class="st0" d="M132.7,72.6c0,33.1-26.9,60-60,60c-33.1,0-60-26.9-60-60c0-33.1,26.9-60,60-60
		C105.8,12.6,132.7,39.5,132.7,72.6z"/>
	<g>
		
			<image style="overflow:visible;opacity:0.75;" width="605" height="605" xlink:href="75838453.png"  transform="matrix(0.24 0 0 0.24 0 0)">
		</image>
		<g>
			<path class="st1" d="M132.7,72.6c0,33.1-26.9,60-60,60c-33.1,0-60-26.9-60-60c0-33.1,26.9-60,60-60
				C105.8,12.6,132.7,39.5,132.7,72.6z"/>
		</g>
	</g>
	<path class="st2" d="M115.3,115.1c-23.4,23.4-61.4,23.4-84.8,0"/>
	<path class="st2" d="M30.4,30.2c23.4-23.4,61.4-23.4,84.8,0"/>
	<g>
		
			<image style="overflow:visible;opacity:0.6;" width="186" height="186" xlink:href="75838451.png"  transform="matrix(0.24 0 0 0.24 11.28 4.8)">
		</image>
		<g>
			<polyline class="st3" points="20.1,19.6 47.2,13.4 40.9,40.7 20,19.8 			"/>
		</g>
	</g>
	<g>
		
			<image style="overflow:visible;opacity:0.6;" width="186" height="186" xlink:href="75838457.png"  transform="matrix(0.24 0 0 0.24 89.76 95.52)">
		</image>
		<g>
			<polyline class="st3" points="125.6,125.3 98.5,131.6 104.7,104.2 125.6,125.2 			"/>
		</g>
	</g>
	<path class="st2" d="M30.4,115.1C7,91.6,7,53.7,30.4,30.2"/>
	<path class="st2" d="M115.3,30.2c23.4,23.4,23.4,61.4,0,84.8"/>
	<path class="st4" d="M101.9,103.1c0,2.8-2.2,5-4.8,5H48.8c-2.7,0-4.8-2.2-4.8-5l0,0c0-2.8,2.2-5,4.8-5h48.3
		C99.7,98.1,101.9,100.3,101.9,103.1L101.9,103.1z"/>
	<path class="st5" d="M85.4,103.1c0,1.9-1.4,3.4-3.2,3.4H49.7c-1.8,0-3.2-1.5-3.2-3.4l0,0c0-1.9,1.4-3.4,3.2-3.4h32.5
		C83.9,99.7,85.4,101.2,85.4,103.1L85.4,103.1z"/>
	<g>
		<g>
			<path class="st4" d="M44.8,77.9c-1.5,1.4-1.6,1.9-0.2,1.1s3.6-2,4.9-2.6c1.3-0.6,3.5-1.5,4.8-2c1.4-0.4,3.4-0.9,4.5-0.9
				c1.1-0.1,2.8,0,3.8,0.2c1,0.2,2.9,0.6,4.3,1.1c1.4,0.4,3.7,1.2,5.1,1.6c1.5,0.5,3.8,1.2,5.2,1.6c1.4,0.4,3.7,1,5.1,1.3
				s3.8,0.7,5.4,0.9c1.6,0.2,4.2,0.3,5.9,0.4s4.3,0.1,5.8,0s4-0.3,5.5-0.5c1.5-0.2,3.7-0.8,4.9-1.2c1.2-0.4,1.1-0.8-0.3-0.9
				s-3.7-0.2-5.4-0.4c-1.6-0.2-4.3-0.6-5.9-1c-1.6-0.4-4.2-1.2-5.7-1.9s-3.8-2.3-5.2-3.5c-1.4-1.2-3.1-3.2-3.8-4.3
				c-0.7-1.1-1.8-3.3-2.4-4.9S80,58,79.8,56.8s-0.2-3.1-0.1-4.2c0.1-1.1,0.2-2.5,0.4-3c0.1-0.5,0.5-1.4,0.7-1.9
				c0.3-0.5,0.9-1.2,1.4-1.6c0.5-0.4,1.4-0.9,1.9-1.1c0.5-0.2,1.4-0.4,1.8-0.5s1.2,0,1.6,0c0.4,0.1,1.1,0.3,1.5,0.5
				c0.4,0.2,1,0.6,1.3,0.8c0.4,0.3,0.8,0.8,1.1,1.1s0.6,0.9,0.8,1.4c0.2,0.4,0.4,1.1,0.4,1.5c0,0.4,0,1-0.1,1.3
				c-0.1,0.4-0.3,0.9-0.4,1.2c-0.2,0.3-0.5,0.8-0.8,1.1s-1,0.9-1.6,1.3c-0.6,0.4-0.7,1-0.2,1.2c0.5,0.2,1.3,0.5,1.9,0.6
				s1.6,0,2.1-0.2c0.6-0.2,1.6-1,2.3-1.7c0.7-0.7,1.5-2.1,1.7-3c0.3-0.9,0.4-2.5,0.4-3.4c-0.1-1-0.4-2.5-0.8-3.4
				c-0.3-0.9-1.2-2.2-1.8-2.9c-0.7-0.7-1.9-1.6-2.7-2s-2.1-0.9-2.9-1.1c-0.8-0.2-2.1-0.3-2.8-0.2c-0.7,0-1-0.4-0.5-1.1
				c0.4-0.6,1.4-1.5,2.2-1.9s2-0.9,2.8-1.1c0.8-0.2,1.8-0.4,2.3-0.4c0.5,0,1.3,0,1.7,0c0.5,0,1.2,0.2,1.7,0.3
				c0.4,0.1,1.2,0.4,1.6,0.6c0.4,0.2,1.1,0.6,1.5,0.8c0.4,0.2,0.6,0.1,0.5-0.2c-0.2-0.4-0.8-1.1-1.3-1.6c-0.6-0.5-1.5-1.1-2-1.4
				c-0.6-0.3-1.5-0.6-2.1-0.8c-0.6-0.2-1.8-0.4-2.6-0.4s-2.1-0.1-2.8,0s-1.8,0.3-2.5,0.4s-2,0.7-2.9,1.2c-1,0.5-2.9,1.8-4.4,3
				c-1.5,1.1-3.4,3.1-4.4,4.2s-2.5,3.1-3.3,4.4c-0.9,1.2-2.3,3.4-3.3,4.8s-2.4,3.7-3.2,5c-0.8,1.3-2.2,3.3-3,4.5
				c-0.8,1.2-2.5,3.2-3.7,4.6c-1.2,1.3-3.2,3.5-4.4,4.7c-1.2,1.2-3.3,3.3-4.7,4.6C48.7,74.3,46.3,76.5,44.8,77.9z"/>
		</g>
		<g>
			<path class="st4" d="M85.3,85.1c1.6,0.3,4.3,0.9,6,1.2c1.7,0.3,4.4,0.6,6.1,0.7s4,0.1,5.3,0c1.3-0.1,1.4,0.3,0.2,0.7
				c-1.2,0.4-3.4,1-4.9,1.2c-1.5,0.2-3.9,0.5-5.5,0.5c-1.5,0.1-4.1,0.1-5.8,0c-1.7-0.1-4.4-0.3-5.9-0.4c-1.6-0.2-4-0.6-5.4-0.9
				c-1.4-0.3-3.7-0.9-5.1-1.3s-3.7-1.1-5.2-1.6c-1.5-0.5-3.8-1.2-5.1-1.6c-1.4-0.4-3.3-0.9-4.3-1.1c-1-0.2-2.7-0.2-3.8-0.2
				s-3.1,0.5-4.5,0.9c-1.4,0.4-3.6,1.3-4.8,2c-1.3,0.6-3.5,1.8-4.9,2.6c-1.4,0.8-1.3,0.3,0.2-1.1s3.9-3.6,5.3-4.9
				c1.4-1.3,4.1-2.8,6-3.3c1.9-0.5,4.9-1,6.8-1c1.9,0,4.9,0.3,6.7,0.8c1.8,0.4,4.3,1.2,5.6,1.8c1.3,0.6,3.6,1.4,5.2,1.9
				c1.6,0.4,4.2,1.2,5.8,1.7C81.1,84.1,83.7,84.8,85.3,85.1z"/>
		</g>
		<g>
			<path class="st4" d="M97.7,37.9c-0.7,0-0.7,0.5,0.1,1.1c0.8,0.6,1.7,1.4,1.9,1.7s0.7,0.9,1,1.3c0.2,0.4,0.6,0.9,0.7,1.2
				c0.2,0.3,0.4,0.8,0.5,1.2c0.1,0.3,0.2,0.8,0.2,1c0,0.2,0,0.8,0,1.1c0,0.4,0,1.3,0.1,1.9c0.1,0.7,0.3,1.6,0.6,2.2s0.8,1.3,1.2,1.7
				c0.4,0.4,1,0.7,1.4,0.7s0.9-0.4,1.2-0.8s0.6-1.3,0.7-1.9c0.1-0.6,0-1.8-0.2-2.6c-0.2-0.8-0.8-2.4-1.4-3.5
				c-0.6-1.1-1.7-2.6-2.4-3.3c-0.7-0.7-2-1.7-2.8-2.2C99.7,38.3,98.5,37.9,97.7,37.9z"/>
		</g>
		<g>
			<path class="st4" d="M41.7,72.8c0.9-0.1,0.1,0.4-1.8,1.1s-5.4,1.3-7.9,1.4c-2.4,0.1-5.5,0.1-6.8-0.2c-1.3-0.2-2.7-0.7-3.2-0.9
				s-1.1-0.7-1.5-1c-0.4-0.3,0-0.5,0.7-0.6s2.1-0.3,3.1-0.5c1-0.2,3.4-1,5.4-1.9c2-0.8,5.1-2.4,6.8-3.5s4.1-2.9,5.2-3.9
				s2.7-2.8,3.5-3.9s1.7-2.5,1.9-3s0.7-1.4,0.9-1.9c0.2-0.5,0.6-0.6,0.9-0.3c0.3,0.3,0.9,1,1.4,1.5c0.5,0.5,1.2,1.3,1.7,1.6
				s1.2,1,1.8,1.3c0.5,0.4,1.4,0.8,1.9,1.1c0.5,0.2,1.4,0.6,2,0.7s1.3,0.4,1.7,0.4s1,0,1.3,0s-0.4,0.4-1.6,1
				c-1.2,0.6-3.2,1.2-4.4,1.4c-1.2,0.2-2.8,0.2-3.6,0.1c-0.7-0.1-1.6-0.3-1.9-0.3c-0.3-0.1-0.9,0.1-1.2,0.4c-0.4,0.3-1.3,1-2,1.5
				c-0.8,0.6-2.6,1.8-4.2,2.8c-1.6,1-3.9,2.3-5.1,3c-1.3,0.6-2.7,1.3-3.1,1.5c-0.4,0.2-0.5,0.5-0.1,0.6c0.4,0.1,1.1,0.2,1.5,0.3
				c0.4,0.1,1.2,0.1,1.8,0.2c0.5,0,1.5,0.1,2.1,0.1C39.6,72.9,40.8,72.9,41.7,72.8z"/>
		</g>
		<g>
			<path class="st4" d="M86.2,68.2c-0.4-0.1-0.3-0.4,0.2-0.6s1.5-0.6,2.3-1c0.7-0.4,2.1-1.3,3.1-2.1s2.3-2.3,2.9-3.2
				c0.6-1,1.3-2,1.5-2.3c0.2-0.3,0.4-0.8,0.5-1.1c0.1-0.3,0.5-0.2,0.7,0.2c0.2,0.4,0.7,1.1,1.1,1.7c0.4,0.5,1,1.4,1.4,1.9
				s1.4,1.6,2.1,2.3c0.8,0.8,2,2,2.7,2.7c0.7,0.7,2,1.8,2.9,2.5c0.8,0.7,2.2,1.7,3,2.3c0.8,0.6,2.8,1.8,4.5,2.6
				c1.6,0.8,4.4,1.7,6.2,1.9c1.8,0.3,2,0.6,0.5,0.8s-4.3,0.2-6.2,0c-1.9-0.2-4.5-0.8-5.7-1.3c-1.2-0.5-3-1.4-4-2
				c-1-0.5-2.2-1.3-2.8-1.7c-0.6-0.4-1.6-1.1-2.3-1.7c-0.6-0.5-1.6-1.4-2-1.8s-1.1-1.2-1.4-1.6c-0.3-0.4-0.9-0.5-1.4-0.2
				c-0.4,0.3-1.3,0.8-1.8,1.1c-0.6,0.3-2,0.7-3.2,0.9c-1.2,0.2-2.6,0.2-3.2,0.1C87.4,68.5,86.6,68.3,86.2,68.2z"/>
		</g>
	</g>
</g>
</svg>
