<?xml version="1.0" encoding="utf-8"?>
<!-- Generator: Adobe Illustrator 16.0.0, SVG Export Plug-In . SVG Version: 6.00 Build 0)  -->
<!DOCTYPE svg PUBLIC "-//W3C//DTD SVG 1.1//EN" "http://www.w3.org/Graphics/SVG/1.1/DTD/svg11.dtd">
<svg version="1.1" id="Calque_1" xmlns="http://www.w3.org/2000/svg" xmlns:xlink="http://www.w3.org/1999/xlink" x="0px" y="0px"
	 width="59.686px" height="59.69px" viewBox="0 0 59.686 59.69" enable-background="new 0 0 59.686 59.69" xml:space="preserve">
<g>
	<path fill="none" stroke="#F6A114" stroke-width="3.87" stroke-miterlimit="10" d="M57.751,29.845
		c0,15.418-12.492,27.91-27.906,27.91c-15.418,0-27.91-12.492-27.91-27.91s12.492-27.91,27.91-27.91
		C45.259,1.935,57.751,14.427,57.751,29.845z"/>
	<g>
		<g>
			<path fill="#F6A114" d="M31.164,49.273c0.551,0.552,1.453,0.552,2.004,0.001l18.425-18.425c0.551-0.551,0.551-1.454,0-2.005
				L33.169,10.421c-0.551-0.551-1.453-0.552-2.004,0l-3.34,3.339c-0.551,0.551-0.551,1.453,0,2.004l13.079,13.079
				c0.551,0.551,0.551,1.454,0,2.005L27.824,43.927c-0.551,0.551-0.552,1.453,0,2.004L31.164,49.273z"/>
		</g>
		<g>
			<path fill="#F6A114" d="M9.51,33.659c-0.78,0-1.417-0.638-1.417-1.417v-4.791c0-0.78,0.638-1.417,1.417-1.417h33.036
				c0.779,0,1.417,0.638,1.417,1.417v4.791c0,0.779-0.638,1.417-1.417,1.417H9.51z"/>
		</g>
	</g>
</g>
</svg>
