<?xml version="1.0" encoding="utf-8"?>
<!-- Generator: Adobe Illustrator 22.1.0, SVG Export Plug-In . SVG Version: 6.00 Build 0)  -->
<svg version="1.1" id="Layer_1" xmlns="http://www.w3.org/2000/svg" xmlns:xlink="http://www.w3.org/1999/xlink" x="0px" y="0px"
	 viewBox="0 0 130 130" style="enable-background:new 0 0 130 130;" xml:space="preserve">
<style type="text/css">
	.st0{fill:none;stroke:#4C4B4B;stroke-width:10;stroke-miterlimit:10;}
	.st1{fill:#E84040;}
	.st2{fill:#4D4B4B;}
</style>
<path class="st0" d="M125,65c0,33.1-26.9,60-60,60C31.9,125,5,98.1,5,65C5,31.9,31.9,5,65,5C98.1,5,125,31.9,125,65z"/>
<line class="st1" x1="91" y1="74.7" x2="91" y2="78.1"/>
<g>
	<path class="st2" d="M65.5,17.4c-19.5,0-35.3,15.2-35.9,34.1l-0.3,0.8l-6.1,15.6l-0.7,2l0.7,1.4l1.7,1.1h5.4v11.7
		c0,7.5,6.1,13.6,13.6,13.6h7.3v10.7h39.2V77.8h0c6.8-6.4,11-15.4,11-25.3C101.4,33.1,85.3,17.4,65.5,17.4z M66,75.9
		c-16.9,0-30.5-12.5-30.5-28c0-15.5,13.7-28,30.5-28s30.5,12.5,30.5,28C96.6,63.4,82.9,75.9,66,75.9z"/>
	<g>
		<path class="st2" d="M51.7,27l6.2,6.2c0.9,0.9,0.9,2.4,0,3.3l-2.9,2.9c-0.9,0.9-2.4,0.9-3.3,0l-6.2-6.2c-1,3.3-0.1,7,2.5,9.5
			c3.7,3.5,9.6,3.3,13.1-0.5c3.5-3.7,3.3-9.6-0.5-13.1C58.2,26.7,54.7,26,51.7,27z"/>
		<path class="st2" d="M55,44l21.8,21.8c2.1,2.1,5.4,2.1,7.5,0c2.1-2.1,2.1-5.4,0-7.5L62.5,36.5L55,44z M83.2,64.7
			c-1.5,1.5-3.9,1.5-5.4,0c-1.5-1.5-1.5-3.9,0-5.4c1.5-1.5,3.9-1.5,5.4,0C84.7,60.8,84.7,63.2,83.2,64.7z"/>
	</g>
	<g>
		<polygon class="st2" points="60.5,51.8 55.1,57.3 55.1,57.3 52.6,57.5 52.1,57.7 51.8,58 47.3,64.9 49.5,67.2 56.4,62.7 
			56.8,62.3 56.9,61.9 57.1,59.4 62.6,53.9 		"/>
		<path class="st2" d="M84.1,30.4c-1.8-1.8-4.3-2.3-5.6-1L68.1,39.7l6.6,6.6L85.1,36C86.4,34.7,85.9,32.2,84.1,30.4z"/>
	</g>
</g>
</svg>
