<?xml version="1.0" encoding="utf-8"?>
<!-- Generator: Adobe Illustrator 16.0.0, SVG Export Plug-In . SVG Version: 6.00 Build 0)  -->
<!DOCTYPE svg PUBLIC "-//W3C//DTD SVG 1.1//EN" "http://www.w3.org/Graphics/SVG/1.1/DTD/svg11.dtd">
<svg version="1.1" id="Calque_1" xmlns="http://www.w3.org/2000/svg" xmlns:xlink="http://www.w3.org/1999/xlink" x="0px" y="0px"
	 width="966px" height="998px" viewBox="397 461 966 998" enable-background="new 397 461 966 998" xml:space="preserve">
<path fill="#4B4B4B" d="M979,960c0,8.667-3.333,16.333-10,23l-466,466c-6.667,6.667-14.333,10-23,10s-16.333-3.333-23-10l-50-50
	c-6.667-6.667-10-14.333-10-23s3.333-16.333,10-23l393-393L407,567c-6.667-6.667-10-14.333-10-23s3.333-16.333,10-23l50-50
	c6.667-6.667,14.333-10,23-10s16.333,3.333,23,10l466,466C975.667,943.667,979,951.333,979,960z M1363,960
	c0,8.667-3.333,16.333-10,23l-466,466c-6.667,6.667-14.333,10-23,10s-16.333-3.333-23-10l-50-50c-6.667-6.667-10-14.333-10-23
	s3.333-16.333,10-23l393-393L791,567c-6.667-6.667-10-14.333-10-23s3.333-16.333,10-23l50-50c6.667-6.667,14.333-10,23-10
	s16.333,3.333,23,10l466,466C1359.667,943.667,1363,951.333,1363,960z"/>
</svg>
