<?xml version="1.0" encoding="utf-8"?>
<!-- Generator: Adobe Illustrator 16.0.0, SVG Export Plug-In . SVG Version: 6.00 Build 0)  -->
<!DOCTYPE svg PUBLIC "-//W3C//DTD SVG 1.1//EN" "http://www.w3.org/Graphics/SVG/1.1/DTD/svg11.dtd">
<svg version="1.1" id="Calque_1" xmlns="http://www.w3.org/2000/svg" xmlns:xlink="http://www.w3.org/1999/xlink" x="0px" y="0px"
	 width="129.99px" height="129.99px" viewBox="0 0 129.99 129.99" enable-background="new 0 0 129.99 129.99" xml:space="preserve">
<g>
	<circle fill="none" stroke="#4C4B4B" stroke-width="10" stroke-miterlimit="10" cx="64.995" cy="64.995" r="59.995"/>
	<polygon fill="#4C4B4B" points="41.429,18.292 44.555,24.626 51.544,25.642 46.486,30.572 47.68,37.533 41.429,34.247 
		35.177,37.533 36.371,30.572 31.313,25.642 38.303,24.626 	"/>
	<polygon fill="#4C4B4B" points="62.929,11.792 66.055,18.126 73.044,19.142 67.986,24.072 69.18,31.033 62.929,27.747 
		56.677,31.033 57.871,24.072 52.813,19.142 59.803,18.126 	"/>
	<polygon fill="#4C4B4B" points="88.179,18.292 91.305,24.626 98.294,25.642 93.236,30.572 94.43,37.533 88.179,34.247 
		81.928,37.533 83.121,30.572 78.063,25.642 85.053,24.626 	"/>
	<polygon fill="#4C4B4B" points="104.429,34.292 107.555,40.626 114.544,41.642 109.486,46.572 110.68,53.533 104.429,50.247 
		98.178,53.533 99.371,46.572 94.313,41.642 101.303,40.626 	"/>
	<polygon fill="#4C4B4B" points="109.429,55.499 112.555,61.833 119.544,62.848 114.486,67.778 115.68,74.739 109.429,71.453 
		103.178,74.739 104.371,67.778 99.313,62.848 106.303,61.833 	"/>
	<polygon fill="#4C4B4B" points="104.429,76.498 107.555,82.832 114.544,83.848 109.486,88.777 110.68,95.738 104.429,92.453 
		98.178,95.738 99.371,88.777 94.313,83.848 101.303,82.832 	"/>
	<polygon fill="#4C4B4B" points="88.179,93.998 91.305,100.332 98.294,101.348 93.236,106.277 94.43,113.238 88.179,109.953 
		81.928,113.238 83.121,106.277 78.063,101.348 85.053,100.332 	"/>
	<polygon fill="#4C4B4B" points="66.429,100.248 69.555,106.582 76.544,107.598 71.486,112.527 72.68,119.488 66.429,116.203 
		60.177,119.488 61.371,112.527 56.313,107.598 63.303,106.582 	"/>
	<polygon fill="#4C4B4B" points="41.429,93.998 44.555,100.332 51.544,101.348 46.486,106.277 47.68,113.238 41.429,109.953 
		35.177,113.238 36.371,106.277 31.313,101.348 38.303,100.332 	"/>
	<polygon fill="#4C4B4B" points="25.179,76.498 28.305,82.832 35.294,83.848 30.236,88.777 31.43,95.738 25.179,92.453 
		18.927,95.738 20.121,88.777 15.063,83.848 22.053,82.832 	"/>
	<polygon fill="#4C4B4B" points="21.198,55.499 24.324,61.833 31.313,62.848 26.256,67.777 27.45,74.738 21.198,71.453 
		14.947,74.738 16.141,67.777 11.083,62.848 18.072,61.833 	"/>
	<polygon fill="#4C4B4B" points="25.179,36.258 28.305,42.592 35.294,43.608 30.236,48.538 31.43,55.499 25.179,52.212 
		18.927,55.499 20.121,48.538 15.063,43.608 22.053,42.592 	"/>
	<g>
		<path fill="#4C4B4B" d="M33.49,61.713v-9.306h6.729v1.098h-5.497v2.85h5.148v1.092h-5.148v3.167h5.713v1.098H33.49z"/>
		<path fill="#4C4B4B" d="M46.096,61.713v-0.99c-0.525,0.762-1.238,1.143-2.139,1.143c-0.398,0-0.769-0.076-1.114-0.229
			c-0.345-0.152-0.601-0.344-0.768-0.574c-0.167-0.231-0.285-0.513-0.353-0.848c-0.046-0.224-0.07-0.58-0.07-1.066v-4.177h1.143
			v3.739c0,0.597,0.023,0.999,0.07,1.206c0.072,0.3,0.224,0.537,0.457,0.708c0.233,0.172,0.521,0.257,0.863,0.257
			s0.665-0.088,0.965-0.263c0.3-0.176,0.513-0.415,0.638-0.718c0.125-0.302,0.188-0.741,0.188-1.317v-3.612h1.143v6.741H46.096z"/>
		<path fill="#4C4B4B" d="M48.583,61.713v-6.741h1.028v1.022c0.262-0.478,0.504-0.793,0.727-0.946
			c0.222-0.152,0.466-0.229,0.733-0.229c0.385,0,0.776,0.123,1.174,0.368l-0.394,1.06C51.573,56.083,51.293,56,51.014,56
			c-0.25,0-0.474,0.075-0.673,0.226c-0.199,0.15-0.341,0.358-0.425,0.625c-0.127,0.406-0.19,0.851-0.19,1.333v3.529H48.583z"/>
		<path fill="#4C4B4B" d="M52.188,58.342c0-1.249,0.347-2.173,1.041-2.774c0.58-0.5,1.287-0.749,2.12-0.749
			c0.927,0,1.684,0.304,2.272,0.911c0.588,0.607,0.882,1.446,0.882,2.517c0,0.868-0.13,1.55-0.39,2.047
			c-0.261,0.498-0.639,0.884-1.137,1.159c-0.497,0.275-1.04,0.413-1.628,0.413c-0.944,0-1.707-0.303-2.288-0.908
			C52.479,60.353,52.188,59.48,52.188,58.342z M53.362,58.342c0,0.863,0.188,1.51,0.565,1.939c0.376,0.43,0.851,0.645,1.422,0.645
			c0.567,0,1.039-0.216,1.416-0.647s0.565-1.09,0.565-1.974c0-0.833-0.189-1.465-0.568-1.895c-0.378-0.429-0.849-0.644-1.412-0.644
			c-0.571,0-1.045,0.214-1.422,0.641S53.362,57.479,53.362,58.342z"/>
		<path fill="#4C4B4B" d="M59.531,64.296v-9.325h1.041v0.876c0.246-0.343,0.522-0.6,0.832-0.771
			c0.309-0.171,0.684-0.257,1.124-0.257c0.576,0,1.083,0.148,1.523,0.444s0.772,0.714,0.997,1.254
			c0.224,0.539,0.336,1.131,0.336,1.774c0,0.69-0.124,1.311-0.372,1.863c-0.247,0.553-0.607,0.976-1.079,1.27
			c-0.472,0.294-0.968,0.441-1.488,0.441c-0.381,0-0.723-0.081-1.025-0.241c-0.302-0.161-0.551-0.364-0.746-0.609v3.282H59.531z
			 M60.565,58.38c0,0.868,0.176,1.509,0.527,1.923s0.776,0.622,1.276,0.622c0.508,0,0.942-0.215,1.305-0.645
			c0.361-0.429,0.542-1.095,0.542-1.996c0-0.859-0.177-1.502-0.53-1.93c-0.354-0.427-0.776-0.641-1.267-0.641
			c-0.487,0-0.917,0.228-1.292,0.682C60.753,56.852,60.565,57.513,60.565,58.38z"/>
		<path fill="#4C4B4B" d="M71.063,59.542l1.181,0.146c-0.186,0.69-0.531,1.225-1.035,1.606c-0.503,0.381-1.146,0.571-1.93,0.571
			c-0.985,0-1.768-0.304-2.345-0.911c-0.578-0.607-0.866-1.458-0.866-2.555c0-1.134,0.291-2.014,0.875-2.641
			s1.342-0.939,2.273-0.939c0.9,0,1.637,0.307,2.209,0.92c0.57,0.614,0.856,1.477,0.856,2.59c0,0.068-0.002,0.169-0.007,0.305
			h-5.027c0.043,0.741,0.252,1.308,0.629,1.701s0.846,0.59,1.409,0.59c0.419,0,0.776-0.11,1.073-0.33
			C70.655,60.375,70.891,60.024,71.063,59.542z M67.313,57.695h3.764c-0.051-0.567-0.195-0.992-0.432-1.276
			c-0.363-0.44-0.836-0.66-1.416-0.66c-0.524,0-0.965,0.176-1.323,0.527C67.548,56.637,67.35,57.106,67.313,57.695z"/>
		<path fill="#4C4B4B" d="M77.766,60.881c-0.424,0.36-0.83,0.614-1.222,0.762s-0.812,0.222-1.261,0.222
			c-0.74,0-1.309-0.181-1.707-0.543c-0.398-0.361-0.597-0.824-0.597-1.387c0-0.33,0.075-0.632,0.226-0.904
			c0.15-0.273,0.347-0.492,0.59-0.657c0.244-0.165,0.518-0.29,0.822-0.375c0.225-0.059,0.563-0.116,1.016-0.171
			c0.922-0.11,1.602-0.241,2.037-0.394c0.005-0.157,0.007-0.256,0.007-0.298c0-0.465-0.108-0.793-0.323-0.984
			c-0.293-0.258-0.727-0.387-1.302-0.387c-0.538,0-0.935,0.094-1.19,0.283c-0.256,0.188-0.445,0.521-0.568,1l-1.117-0.152
			c0.102-0.478,0.27-0.864,0.502-1.159c0.232-0.294,0.569-0.521,1.01-0.679c0.439-0.159,0.949-0.238,1.529-0.238
			c0.576,0,1.043,0.068,1.402,0.203c0.36,0.135,0.625,0.306,0.794,0.511c0.169,0.206,0.288,0.465,0.355,0.778
			c0.038,0.195,0.058,0.546,0.058,1.054v1.523c0,1.062,0.023,1.734,0.072,2.015c0.049,0.282,0.145,0.551,0.289,0.81h-1.193
			C77.875,61.476,77.799,61.199,77.766,60.881z M77.67,58.33c-0.414,0.169-1.036,0.313-1.865,0.432
			c-0.471,0.068-0.803,0.144-0.997,0.229s-0.345,0.208-0.45,0.372c-0.106,0.163-0.159,0.344-0.159,0.542
			c0,0.305,0.115,0.559,0.346,0.762c0.231,0.203,0.568,0.305,1.013,0.305c0.439,0,0.832-0.096,1.174-0.289
			c0.344-0.193,0.596-0.456,0.756-0.791c0.123-0.258,0.184-0.639,0.184-1.143V58.33z"/>
		<path fill="#4C4B4B" d="M80.285,61.713v-6.741h1.027v0.958c0.496-0.741,1.211-1.111,2.146-1.111c0.406,0,0.779,0.073,1.12,0.219
			c0.341,0.146,0.595,0.338,0.765,0.575s0.287,0.519,0.355,0.844c0.043,0.211,0.063,0.582,0.063,1.111v4.145H84.62v-4.101
			c0-0.465-0.044-0.813-0.134-1.044c-0.088-0.231-0.246-0.415-0.473-0.553c-0.227-0.137-0.492-0.206-0.797-0.206
			c-0.486,0-0.906,0.154-1.26,0.463s-0.529,0.895-0.529,1.758v3.682H80.285z"/>
		<path fill="#4C4B4B" d="M40.104,74.051l1.231,0.311c-0.258,1.012-0.723,1.783-1.394,2.314c-0.67,0.53-1.49,0.796-2.459,0.796
			c-1.003,0-1.819-0.204-2.447-0.612c-0.629-0.408-1.107-1-1.435-1.774c-0.328-0.774-0.492-1.606-0.492-2.495
			c0-0.969,0.185-1.814,0.556-2.535c0.37-0.722,0.897-1.27,1.58-1.645c0.684-0.375,1.436-0.562,2.257-0.562
			c0.931,0,1.714,0.237,2.349,0.711s1.077,1.141,1.327,1.999l-1.212,0.286c-0.216-0.677-0.529-1.17-0.939-1.479
			c-0.411-0.309-0.927-0.463-1.549-0.463c-0.715,0-1.313,0.172-1.793,0.514c-0.48,0.344-0.818,0.803-1.013,1.381
			s-0.292,1.174-0.292,1.787c0,0.791,0.115,1.482,0.346,2.072c0.231,0.59,0.589,1.031,1.076,1.324
			c0.487,0.291,1.014,0.438,1.581,0.438c0.69,0,1.274-0.199,1.752-0.597S39.935,74.833,40.104,74.051z"/>
		<path fill="#4C4B4B" d="M41.97,73.942c0-1.249,0.347-2.173,1.041-2.774c0.58-0.499,1.287-0.748,2.12-0.748
			c0.927,0,1.684,0.303,2.272,0.91s0.882,1.446,0.882,2.518c0,0.867-0.13,1.549-0.39,2.047c-0.261,0.497-0.639,0.883-1.137,1.158
			c-0.497,0.275-1.04,0.412-1.628,0.412c-0.944,0-1.707-0.303-2.288-0.907C42.261,75.953,41.97,75.08,41.97,73.942z M43.144,73.942
			c0,0.863,0.188,1.51,0.565,1.938c0.376,0.43,0.851,0.645,1.422,0.645c0.567,0,1.039-0.215,1.416-0.646s0.565-1.09,0.565-1.975
			c0-0.834-0.189-1.465-0.568-1.895c-0.378-0.43-0.849-0.645-1.412-0.645c-0.571,0-1.045,0.214-1.422,0.641
			C43.333,72.434,43.144,73.079,43.144,73.942z"/>
		<path fill="#4C4B4B" d="M49.313,77.313v-6.74h1.022v0.945c0.211-0.33,0.493-0.596,0.844-0.797s0.751-0.301,1.2-0.301
			c0.5,0,0.909,0.104,1.229,0.311c0.319,0.207,0.544,0.497,0.676,0.869c0.533-0.787,1.227-1.18,2.082-1.18
			c0.668,0,1.183,0.185,1.542,0.555c0.36,0.371,0.54,0.941,0.54,1.711v4.627h-1.136v-4.246c0-0.457-0.037-0.786-0.111-0.986
			c-0.074-0.201-0.208-0.363-0.403-0.486s-0.423-0.184-0.686-0.184c-0.474,0-0.868,0.157-1.181,0.473
			c-0.313,0.314-0.47,0.82-0.47,1.514v3.916h-1.143v-4.379c0-0.508-0.093-0.889-0.279-1.143s-0.491-0.381-0.914-0.381
			c-0.322,0-0.619,0.084-0.892,0.254c-0.273,0.169-0.471,0.416-0.594,0.742s-0.184,0.795-0.184,1.409v3.497H49.313z"/>
		<path fill="#4C4B4B" d="M59.83,77.313v-6.74h1.022v0.945c0.211-0.33,0.493-0.596,0.844-0.797s0.751-0.301,1.2-0.301
			c0.5,0,0.909,0.104,1.229,0.311c0.319,0.207,0.544,0.497,0.676,0.869c0.533-0.787,1.227-1.18,2.083-1.18
			c0.668,0,1.182,0.185,1.542,0.555c0.36,0.371,0.54,0.941,0.54,1.711v4.627h-1.137v-4.246c0-0.457-0.037-0.786-0.111-0.986
			c-0.074-0.201-0.208-0.363-0.402-0.486c-0.195-0.123-0.424-0.184-0.686-0.184c-0.475,0-0.868,0.157-1.181,0.473
			c-0.313,0.314-0.47,0.82-0.47,1.514v3.916h-1.143v-4.379c0-0.508-0.093-0.889-0.279-1.143s-0.491-0.381-0.914-0.381
			c-0.322,0-0.619,0.084-0.892,0.254c-0.273,0.169-0.471,0.416-0.594,0.742s-0.184,0.795-0.184,1.409v3.497H59.83z"/>
		<path fill="#4C4B4B" d="M70.354,69.321v-1.313h1.143v1.313H70.354z M70.354,77.313v-6.74h1.143v6.74H70.354z"/>
		<path fill="#4C4B4B" d="M72.467,75.301l1.129-0.178c0.064,0.453,0.24,0.8,0.53,1.041s0.695,0.361,1.216,0.361
			c0.525,0,0.914-0.106,1.168-0.32c0.254-0.213,0.381-0.465,0.381-0.752c0-0.258-0.112-0.461-0.336-0.609
			c-0.157-0.102-0.547-0.23-1.168-0.387c-0.838-0.212-1.419-0.395-1.743-0.549c-0.323-0.155-0.569-0.369-0.736-0.643
			c-0.167-0.271-0.251-0.574-0.251-0.904c0-0.3,0.069-0.578,0.207-0.834c0.137-0.256,0.324-0.469,0.562-0.639
			c0.178-0.131,0.42-0.242,0.727-0.332c0.308-0.092,0.636-0.137,0.987-0.137c0.529,0,0.993,0.076,1.394,0.229
			c0.399,0.152,0.694,0.357,0.886,0.619c0.189,0.26,0.321,0.607,0.393,1.043l-1.117,0.152c-0.051-0.347-0.197-0.617-0.44-0.813
			c-0.243-0.194-0.587-0.291-1.032-0.291c-0.524,0-0.898,0.086-1.123,0.26s-0.336,0.377-0.336,0.609c0,0.148,0.046,0.281,0.139,0.4
			c0.094,0.122,0.24,0.224,0.438,0.305c0.114,0.042,0.45,0.139,1.009,0.291c0.809,0.217,1.373,0.393,1.692,0.531
			c0.319,0.137,0.569,0.337,0.752,0.6c0.183,0.262,0.272,0.588,0.272,0.977c0,0.381-0.11,0.74-0.333,1.076
			c-0.222,0.336-0.542,0.598-0.962,0.781c-0.418,0.184-0.893,0.275-1.422,0.275c-0.875,0-1.543-0.182-2.002-0.545
			C72.887,76.556,72.594,76.016,72.467,75.301z"/>
		<path fill="#4C4B4B" d="M78.654,75.301l1.13-0.178c0.063,0.453,0.24,0.8,0.53,1.041c0.289,0.241,0.695,0.361,1.215,0.361
			c0.525,0,0.914-0.106,1.168-0.32c0.254-0.213,0.381-0.465,0.381-0.752c0-0.258-0.111-0.461-0.336-0.609
			c-0.156-0.102-0.546-0.23-1.168-0.387c-0.838-0.212-1.418-0.395-1.742-0.549c-0.324-0.155-0.569-0.369-0.736-0.643
			c-0.168-0.271-0.251-0.574-0.251-0.904c0-0.3,0.069-0.578,0.206-0.834c0.138-0.256,0.325-0.469,0.563-0.639
			c0.178-0.131,0.42-0.242,0.727-0.332c0.307-0.092,0.636-0.137,0.986-0.137c0.529,0,0.994,0.076,1.395,0.229
			c0.398,0.152,0.694,0.357,0.885,0.619c0.19,0.26,0.322,0.607,0.394,1.043l-1.117,0.152c-0.051-0.347-0.198-0.617-0.44-0.813
			c-0.244-0.194-0.588-0.291-1.032-0.291c-0.524,0-0.899,0.086-1.124,0.26c-0.224,0.174-0.336,0.377-0.336,0.609
			c0,0.148,0.047,0.281,0.14,0.4c0.093,0.122,0.239,0.224,0.438,0.305c0.113,0.042,0.45,0.139,1.009,0.291
			c0.808,0.217,1.372,0.393,1.692,0.531c0.318,0.137,0.569,0.337,0.752,0.6c0.182,0.262,0.272,0.588,0.272,0.977
			c0,0.381-0.11,0.74-0.333,1.076s-0.543,0.598-0.962,0.781s-0.894,0.275-1.422,0.275c-0.876,0-1.544-0.182-2.003-0.545
			C79.074,76.556,78.781,76.016,78.654,75.301z"/>
		<path fill="#4C4B4B" d="M85.306,69.321v-1.313h1.143v1.313H85.306z M85.306,77.313v-6.74h1.143v6.74H85.306z"/>
		<path fill="#4C4B4B" d="M87.45,73.942c0-1.249,0.347-2.173,1.041-2.774c0.579-0.499,1.286-0.748,2.12-0.748
			c0.927,0,1.684,0.303,2.272,0.91s0.882,1.446,0.882,2.518c0,0.867-0.13,1.549-0.39,2.047c-0.261,0.497-0.64,0.883-1.137,1.158
			s-1.04,0.412-1.628,0.412c-0.943,0-1.707-0.303-2.288-0.907C87.741,75.953,87.45,75.08,87.45,73.942z M88.625,73.942
			c0,0.863,0.188,1.51,0.564,1.938c0.377,0.43,0.851,0.645,1.422,0.645c0.566,0,1.039-0.215,1.416-0.646
			c0.376-0.432,0.564-1.09,0.564-1.975c0-0.834-0.189-1.465-0.568-1.895s-0.85-0.645-1.412-0.645c-0.571,0-1.045,0.214-1.422,0.641
			C88.813,72.434,88.625,73.079,88.625,73.942z"/>
		<path fill="#4C4B4B" d="M94.793,77.313v-6.74h1.029v0.958c0.494-0.741,1.21-1.11,2.145-1.11c0.406,0,0.78,0.072,1.121,0.219
			c0.34,0.146,0.596,0.338,0.765,0.574s0.288,0.519,0.355,0.844c0.042,0.212,0.063,0.582,0.063,1.111v4.145h-1.143v-4.1
			c0-0.466-0.045-0.814-0.133-1.045c-0.09-0.23-0.247-0.414-0.474-0.553c-0.226-0.137-0.491-0.205-0.796-0.205
			c-0.487,0-0.907,0.154-1.261,0.463c-0.353,0.309-0.53,0.895-0.53,1.758v3.682H94.793z"/>
	</g>
</g>
</svg>
