<?xml version="1.0" encoding="utf-8"?>
<!-- Generator: Adobe Illustrator 16.0.0, SVG Export Plug-In . SVG Version: 6.00 Build 0)  -->
<!DOCTYPE svg PUBLIC "-//W3C//DTD SVG 1.1//EN" "http://www.w3.org/Graphics/SVG/1.1/DTD/svg11.dtd">
<svg version="1.1" id="Calque_1" xmlns="http://www.w3.org/2000/svg" xmlns:xlink="http://www.w3.org/1999/xlink" x="0px" y="0px"
	 width="129.99px" height="129.99px" viewBox="0 0 129.99 129.99" enable-background="new 0 0 129.99 129.99" xml:space="preserve">
<circle fill="none" stroke="#444648" stroke-width="10" stroke-miterlimit="10" cx="64.995" cy="64.995" r="59.995"/>
<path fill="#444648" d="M25.875,63.592l-9.152-15.533h8.882l3.015,6.027c0.395,0.752,0.798,1.543,1.211,2.376
	c0.412,0.833,0.87,1.756,1.373,2.769h0.215c0.395-1.012,0.771-1.936,1.131-2.769c0.358-0.833,0.717-1.625,1.077-2.376l2.799-6.027
	h8.452L35.78,63.936l9.69,16.072h-8.829l-3.445-6.518c-0.467-0.849-0.907-1.689-1.319-2.523c-0.413-0.832-0.853-1.738-1.319-2.719
	h-0.215c-0.431,0.98-0.843,1.887-1.238,2.719c-0.396,0.834-0.79,1.675-1.185,2.523l-3.284,6.518h-8.452L25.875,63.592z"/>
<path fill="#444648" d="M50.153,48.059h8.398l5.868,14.357l2.099,5.586h0.216l2.1-5.586l5.706-14.357h8.398v31.948h-7.43V68.296
	c0-0.784,0.035-1.649,0.107-2.597c0.072-0.947,0.162-1.902,0.27-2.866c0.107-0.963,0.215-1.911,0.323-2.842
	c0.107-0.931,0.216-1.789,0.323-2.572h-0.216l-2.853,7.399l-5.438,12.397h-3.176l-5.383-12.397l-2.799-7.399h-0.215
	c0.108,0.784,0.215,1.642,0.323,2.572c0.107,0.931,0.215,1.879,0.323,2.842c0.108,0.964,0.197,1.919,0.269,2.866
	c0.072,0.948,0.108,1.813,0.108,2.597v11.711h-7.321V48.059z"/>
<path fill="#444648" d="M91.119,48.059h7.967v25.872h13.835v6.076H91.119V48.059z"/>
<path fill="#444648" d="M38.756,24.365l24.763-10.754v7.352l-9.475,3.524l-7.267,2.856v0.243l7.267,2.855l9.475,3.524v7.352
	L38.756,30.563V24.365z"/>
<path fill="#444648" d="M91.186,104.562l-24.763,10.754v-7.352l9.475-3.523l7.268-2.855v-0.244l-7.268-2.855l-9.475-3.523v-7.352
	l24.763,10.754V104.562z"/>
</svg>
